<svg width="1068" height="809" viewBox="0 0 1068 809" fill="none" xmlns="http://www.w3.org/2000/svg">
<path d="M784.551 715.053C784.507 715.127 784.419 715.273 784.287 715.492C784.199 715.638 784.053 715.799 783.848 715.975C781.05 718.474 777.567 718.471 773.398 715.964C770.473 714.205 767.432 711.48 764.275 707.788C761.162 704.024 758.13 699.711 755.178 694.849C752.227 689.988 749.481 684.95 746.94 679.738C744.399 674.525 742.319 669.54 740.699 664.782C739.007 659.98 737.899 655.779 737.376 652.179C736.779 648.534 736.943 645.944 737.867 644.408C738.658 643.092 739.998 642.354 741.886 642.195C743.745 641.919 745.611 641.797 747.484 641.828C749.357 641.859 750.777 641.568 751.744 640.954L752.292 641.284C752.804 641.592 753.301 641.841 753.784 642.032C754.194 642.179 754.655 642.406 755.166 642.714C756.117 643.285 757.096 644.472 758.104 646.273C759.156 648.001 760.389 651.332 761.804 656.265C762.431 658.534 763.108 661.63 763.836 665.553C764.563 669.475 765.32 673.764 766.105 678.419C766.862 682.956 767.625 687.399 768.397 691.746C769.139 695.976 769.903 699.672 770.69 702.834C771.477 705.996 772.236 708.045 772.967 708.983C773.347 709.51 773.449 709.92 773.273 710.212C773.053 710.578 772.643 710.431 772.044 709.772C771.371 709.069 770.619 707.671 769.787 705.577C768.926 703.366 768.043 700.695 767.139 697.562C766.162 694.385 765.214 691.077 764.296 687.637C763.377 684.197 762.525 680.896 761.738 677.734C760.878 674.528 760.134 671.79 759.507 669.521C758.924 667.179 758.531 665.598 758.327 664.779C757.758 662.744 757.234 660.387 756.753 657.708C756.2 654.986 755.602 652.834 754.96 651.253C753.675 648.09 752.375 646.113 751.059 645.322C749.962 644.662 749.106 644.844 748.49 645.868C748.05 646.599 747.829 647.711 747.828 649.204C747.826 650.697 748.117 652.614 748.7 654.956C749.998 659.421 751.463 664.684 753.096 670.744C754.773 676.731 756.823 682.843 759.245 689.08C761.595 695.273 764.597 700.962 768.25 706.146C768.981 707.083 770.084 708.394 771.561 710.079C773.037 711.763 774.653 713.133 776.408 714.189C777.578 714.893 778.748 715.347 779.919 715.554C781.06 715.643 782.121 715.285 783.103 714.481C783.718 713.955 784.245 713.824 784.684 714.088C784.903 714.22 784.859 714.542 784.551 715.053ZM828.247 681.886C828.277 682.003 828.196 682.054 828.006 682.039C827.889 682.068 827.794 682.061 827.72 682.017C827.355 681.797 827.209 681.46 827.282 681.006C827.313 679.631 827.044 678.174 826.475 676.637C825.906 675.1 824.926 673.914 823.537 673.078C822.074 672.198 820.509 672.153 818.839 672.941C817.214 673.657 815.581 674.965 813.94 676.866C812.416 678.737 810.929 680.88 809.477 683.293C807.806 686.072 806.281 688.939 804.902 691.893C803.524 694.848 802.321 697.51 801.294 699.88C800.384 702.221 799.739 703.874 799.357 704.839C798.55 706.843 797.545 709.425 796.342 712.585C795.211 715.789 793.811 718.78 792.14 721.559C790.82 723.753 789.274 725.661 787.502 727.284C785.846 728.877 783.958 729.783 781.835 730C779.83 730.188 777.592 729.439 775.121 727.754C773.965 726.86 773.338 725.337 773.237 723.186C773.179 722.952 773.216 722.725 773.348 722.505C773.7 721.92 774.168 721.804 774.753 722.156C775.119 722.376 775.338 722.756 775.41 723.298C775.512 724.454 775.928 725.252 776.659 725.692C777.098 725.956 777.742 726.044 778.591 725.957C780.42 725.564 782.163 724.571 783.818 722.977C785.401 721.34 786.873 719.388 788.237 717.121C789.908 714.342 791.36 711.431 792.592 708.388C793.869 705.273 794.888 702.749 795.651 700.818C796.356 699.151 797.163 696.898 798.073 694.06C798.983 691.221 800.062 688.186 801.309 684.953C802.557 681.72 803.972 678.787 805.555 676.155C807.534 672.864 809.827 670.459 812.434 668.94C814.967 667.376 817.842 667.562 821.06 669.497C821.426 669.717 821.806 669.996 822.201 670.333C822.639 670.596 823.056 670.897 823.451 671.234C825.002 671.47 825.953 671.544 826.305 671.456C826.729 671.413 826.941 671.391 826.941 671.391C827.058 671.362 827.365 671.597 827.862 672.095C828.857 673.091 829.258 674.079 829.067 675.059C828.875 676.04 828.655 677.152 828.405 678.395C828.331 678.849 828.345 679.405 828.447 680.064C828.593 680.649 828.526 681.257 828.247 681.886ZM826.702 658.378C825.646 660.133 824.079 661.581 821.999 662.72C819.891 663.742 817.352 663.659 814.382 662.471C814.046 662.368 813.549 662.118 812.89 661.723C810.697 660.403 808.672 658.389 806.816 655.68C804.931 652.853 803.39 649.786 802.194 646.477C801.041 643.095 800.393 639.868 800.25 636.794C800.107 633.721 800.629 631.197 801.816 629.222C802.592 629.092 803.376 628.617 804.167 627.798C805.002 626.906 805.793 626.087 806.54 625.342C807.448 624.494 808.363 624.049 809.285 624.006C810.251 623.89 811.137 624.073 811.941 624.557C812.892 625.129 813.754 626.096 814.528 627.458C815.229 628.775 815.711 630.21 815.973 631.762C816.277 634.235 816.428 636.965 816.425 639.95C816.349 642.892 816.383 645.65 816.526 648.226C816.641 650.685 817.129 652.522 817.991 653.737C818.269 654.104 818.32 654.433 818.144 654.725C817.836 655.237 817.456 655.208 817.003 654.636C815.249 652.586 814.154 650.185 813.717 647.433C813.281 644.681 812.999 641.922 812.87 639.156C812.712 636.273 812.239 633.748 811.451 631.581C810.999 630.015 810.334 628.968 809.456 628.44C808.506 627.868 807.723 628.094 807.107 629.118C806.579 629.996 806.373 631.166 806.489 632.63C806.704 636.742 807.687 641.068 809.439 645.606C811.117 650.101 813.411 653.821 816.32 656.765C817.066 657.512 817.804 658.106 818.535 658.545C819.925 659.381 821.132 659.609 822.157 659.23C823.108 658.806 823.892 658.083 824.508 657.059C825.035 656.181 825.439 655.179 825.718 654.053C825.997 652.926 826.138 651.865 826.139 650.87C826.14 649.377 825.959 647.775 825.595 646.062C825.158 644.306 824.72 642.798 824.282 641.539C823.173 638.581 822.816 636.774 823.212 636.116C823.432 635.75 823.9 636.131 824.616 637.258C825.376 638.313 826.23 640.121 827.179 642.683C828.098 645.128 828.622 647.734 828.751 650.5C828.924 653.193 828.241 655.819 826.702 658.378ZM839.674 637.056C838.707 638.665 837.227 639.717 835.237 640.213C833.246 640.708 830.971 640.186 828.411 638.647C826.656 637.592 824.777 635.914 822.775 633.614C820.743 631.197 818.785 628.576 816.9 625.749C814.986 622.806 813.254 619.972 811.706 617.249C810.128 614.408 808.858 612.051 807.894 610.176L805.123 614.783C804.463 615.88 803.768 616.209 803.037 615.769C802.671 615.549 802.43 615.205 802.313 614.737C802.197 614.268 802.248 613.851 802.468 613.485L806.36 607.014C806.098 606.457 805.63 605.579 804.958 604.378C804.257 603.06 803.483 601.698 802.636 600.293C801.759 598.77 800.977 597.503 800.291 596.492C799.648 595.409 799.217 594.801 798.997 594.669C798.559 594.405 798.156 594.412 797.79 594.69C797.468 594.894 797.19 595.026 796.955 595.084C796.458 595.084 796.136 595.039 795.99 594.951C795.624 594.731 795.478 594.395 795.552 593.941C795.552 593.444 795.64 593.049 795.816 592.756C796.212 592.098 797.113 591.345 798.519 590.498C799.895 589.533 801.265 588.664 802.626 587.89C803.959 586.998 804.75 586.428 804.999 586.18C805.335 586.78 805.912 587.974 806.729 589.76C807.474 591.502 808.292 593.288 809.182 595.119C810 596.905 810.643 598.237 811.11 599.116L821.424 581.719C822.215 580.402 822.867 579.898 823.379 580.206C823.744 580.426 823.949 580.997 823.992 581.919C823.962 582.797 823.785 583.587 823.462 584.289C822.612 585.869 821.498 587.887 820.119 590.344C818.712 592.685 817.407 594.937 816.205 597.102C815.047 599.193 814.357 600.671 814.137 601.534C813.858 602.66 814.112 604.307 814.9 606.474C815.659 608.523 816.703 610.844 818.032 613.436C819.405 615.954 820.873 618.48 822.437 621.014C824 623.547 825.49 625.788 826.908 627.735C828.252 629.639 829.334 630.987 830.152 631.778C830.723 632.32 831.278 632.804 831.819 633.229C832.287 633.61 832.741 633.932 833.179 634.196C834.203 634.812 835.044 635.068 835.703 634.967C836.333 634.748 836.801 634.382 837.109 633.871C837.681 632.92 837.821 631.859 837.529 630.688C837.151 628.668 836.422 625.989 835.343 622.651C834.234 619.196 833.052 615.946 831.796 612.901C830.95 610.998 830.636 609.863 830.856 609.498C831.076 609.132 831.551 609.418 832.282 610.355C833.013 611.293 833.758 612.537 834.517 614.089C835.335 615.876 836.401 618.16 837.715 620.942C838.956 623.68 839.912 626.395 840.582 629.089C841.34 632.133 841.037 634.789 839.674 637.056ZM807.948 590.963C807.684 591.402 807.442 591.555 807.223 591.423C806.857 591.203 806.536 590.413 806.259 589.051C805.983 587.69 805.56 586.241 804.991 584.704C804.422 583.166 803.515 582.024 802.272 581.276C801.175 580.617 800.268 580.469 799.551 580.834C798.804 581.082 798.072 581.389 797.355 581.754C796.681 582.046 795.979 581.972 795.247 581.532C792.907 580.125 792.441 578.251 793.848 575.911C794.464 574.887 795.467 574.047 796.858 573.39C798.22 572.616 799.523 572.602 800.766 573.35C803.033 574.713 804.853 576.654 806.226 579.173C807.599 581.691 808.372 584.297 808.545 586.99C808.573 587.605 808.558 588.293 808.498 589.054C808.483 589.741 808.3 590.378 807.948 590.963ZM863.655 593.705C862.555 595.534 861.163 596.937 859.479 597.916C857.722 598.851 855.93 598.768 854.101 597.669C853.443 597.273 852.814 596.746 852.215 596.086C851.367 595.178 850.951 594.38 850.966 593.692C850.953 592.887 851.18 592.675 851.648 593.056C852.291 593.642 853.037 593.892 853.886 593.805C854.735 593.718 855.562 593.419 856.367 592.908C857.261 592.25 857.883 591.629 858.235 591.044C859.115 589.581 859.358 587.935 858.965 586.105C858.542 584.158 857.673 582.789 856.357 581.998C855.479 581.47 854.594 581.286 853.701 581.446C851.93 581.576 850.386 581.991 849.068 582.692C847.721 583.276 846.213 583.465 844.545 583.259L844.699 583.5C845.517 584.789 846.218 586.107 846.802 587.454C847.357 588.684 847.897 589.855 848.423 590.968C849.299 592.988 850.124 594.928 850.897 596.787C851.642 598.53 852.43 600.696 853.261 603.288C853.539 604.151 853.545 604.803 853.281 605.241C853.017 605.68 852.63 605.746 852.118 605.438C851.825 605.262 851.599 604.976 851.438 604.581C850.402 601.668 849.483 599.223 848.68 597.246C847.848 595.153 846.826 592.795 845.614 590.174C845.03 588.828 844.336 587.415 843.533 585.936C842.7 584.34 841.809 583.007 840.859 581.938C838.475 580.603 836.925 578.626 836.211 576.006C835.424 573.342 835.295 570.575 835.825 567.708C836.354 564.84 837.308 562.426 838.686 560.466C838.994 559.955 839.704 559.685 840.816 559.656C841.972 559.555 843.099 559.586 844.196 559.748C845.265 559.793 845.894 559.823 846.084 559.838L846.304 559.969C846.523 560.101 846.64 560.321 846.654 560.628C846.712 560.863 846.485 561.075 845.973 561.264C845.768 561.44 845.511 561.783 845.204 562.295C844.544 563.392 843.972 564.84 843.487 566.64C842.929 568.395 842.554 570.261 842.361 572.236C842.213 574.139 842.292 575.829 842.598 577.308C842.904 578.786 843.612 579.76 844.724 580.229C845.763 580.655 846.736 580.692 847.643 580.342C848.551 579.992 849.62 579.539 850.85 578.984C852.007 578.386 853.536 577.912 855.439 577.562C857.884 577.14 859.947 577.435 861.629 578.447C863.091 579.326 864.158 580.615 864.83 582.314C865.428 583.968 865.697 585.673 865.637 587.429C865.591 589.493 864.93 591.585 863.655 593.705ZM869.453 492.788C867.093 492.707 864.817 493.211 862.623 494.3C859.16 495.83 856.321 498.438 854.105 502.123C851.298 506.79 850.939 510.89 853.03 514.422C853.776 515.406 854.665 516.208 855.697 516.829C857.269 517.774 859.014 518.155 860.932 517.97C862.21 517.735 863.622 517.28 865.166 516.603C867.173 515.602 868.919 514.478 870.405 513.231L873.52 510.387C879.987 504.308 885.305 500.916 889.474 500.212C890.959 499.968 892.656 499.985 894.563 500.262C896.421 500.51 898.21 501.151 899.929 502.185C901.796 503.308 903.412 504.848 904.777 506.806C906.76 510.073 907.626 513.805 907.376 518.003C907.028 521.808 906.258 524.757 905.066 526.85C904.455 528.089 903.972 529.002 903.618 529.592C900.929 534.063 896.992 537.55 891.808 540.052C888.925 541.396 886.127 542.155 883.413 542.329C880.699 542.503 878.522 542.398 876.88 542.012L878.481 534.345C879.592 534.611 881.052 534.687 882.861 534.57C884.621 534.425 886.475 533.901 888.423 532.998C890.508 531.978 892.211 530.927 893.529 529.847C894.828 528.688 895.965 527.298 896.941 525.677C897.206 525.234 897.615 524.443 898.167 523.303C898.857 522.046 899.291 520.099 899.471 517.464C899.571 516.186 899.518 515.05 899.312 514.057C899.136 513.015 898.764 512.021 898.195 511.077C897.429 510.014 896.604 509.217 895.719 508.685C894.344 507.857 892.731 507.59 890.882 507.883C889.604 508.118 888.069 508.834 886.279 510.032C884.517 511.18 882.042 513.238 878.853 516.204L875.502 519.106C873.347 521.021 870.951 522.557 868.315 523.715C865.915 524.814 863.844 525.475 862.104 525.7C860.52 525.885 858.79 525.814 856.912 525.488C855.015 525.083 853.231 524.378 851.561 523.373C849.497 522.132 847.842 520.601 846.595 518.781C844.592 515.77 843.706 512.628 843.935 509.354C844.145 506.001 844.891 503.037 846.171 500.463C846.418 499.942 846.851 499.165 847.472 498.134C850.545 493.024 854.496 489.346 859.327 487.099C862.789 485.569 866.266 484.85 869.756 484.942L869.453 492.788ZM923.875 446.516C927.806 448.88 930.826 452.034 932.936 455.979C935.046 459.924 936.109 464.109 936.124 468.534C936.09 472.929 935.009 476.895 932.881 480.433C930.547 484.314 927.461 487.276 923.625 489.317C919.788 491.358 915.662 492.322 911.247 492.21C906.862 492.048 902.68 490.77 898.7 488.377L865.978 468.697L869.923 462.138L902.571 481.773C905.47 483.516 908.443 484.468 911.491 484.629C914.52 484.711 917.323 484.055 919.9 482.661C922.507 481.218 924.623 479.146 926.249 476.444C927.756 473.938 928.535 471.195 928.587 468.216C928.59 465.207 927.861 462.36 926.399 459.674C924.887 456.959 922.707 454.744 919.857 453.031L887.209 433.396L891.153 426.836L923.875 446.516ZM938.496 410.692C939.648 408.776 940.245 406.727 940.287 404.544C940.279 402.331 939.745 400.271 938.685 398.362C937.606 396.375 936.108 394.805 934.192 393.653C932.276 392.5 930.211 391.928 927.999 391.935C925.816 391.894 923.77 392.403 921.862 393.463C919.953 394.523 918.423 396.011 917.27 397.927L908.406 412.667L929.631 425.432L938.496 410.692ZM898.094 415.296L910.992 393.85C912.824 390.804 915.255 388.486 918.285 386.896C921.295 385.228 924.546 384.439 928.036 384.532C931.556 384.575 934.864 385.527 937.959 387.388C941.86 389.801 944.6 393.088 946.179 397.249C947.738 401.331 947.93 405.461 946.756 409.639L976.36 406.97L971.573 414.93L943.016 417.526L935.969 429.244L955.794 441.166L951.894 447.652L898.094 415.296ZM955.475 334.235L938.543 362.388L955.862 372.804L970.578 348.336L976.989 352.192L962.274 376.66L986.005 390.932L982.06 397.491L928.26 365.136L949.137 330.424L955.475 334.235Z" fill="white"/>
<rect x="987.648" y="324.851" width="100" height="3" transform="rotate(-58.977 987.648 324.851)" fill="white"/>
<path fill-rule="evenodd" clip-rule="evenodd" d="M686.971 675.341L1067.88 54.196L1024.59 27.5879C936.948 -26.2947 822.27 1.16564 768.455 88.9223L571.34 410.359L591.188 105.89L540.508 102.578C437.876 95.8701 349.247 173.736 342.548 276.496L316.083 682.452C311.82 747.845 361.309 804.316 426.62 808.584C482.363 812.227 531.615 776.664 547.5 725.508C598.849 743.209 657.374 723.604 686.971 675.341ZM214.086 548.458C282.342 509.001 305.729 421.612 266.321 353.271C226.913 284.929 139.634 261.513 71.3779 300.97C3.12165 340.427 -20.2647 427.816 19.1431 496.158C58.5509 564.5 145.83 587.915 214.086 548.458Z" fill="url(#paint0_linear_744_203)"/>
<path fill-rule="evenodd" clip-rule="evenodd" d="M686.971 675.341L1067.88 54.196L1024.59 27.5879C936.948 -26.2947 822.27 1.16564 768.455 88.9223L571.34 410.359L591.188 105.89L540.508 102.577C437.876 95.8701 349.247 173.736 342.548 276.496L316.083 682.452C311.82 747.845 361.309 804.316 426.62 808.584C482.363 812.227 531.615 776.664 547.5 725.508C598.849 743.209 657.374 723.604 686.971 675.341ZM214.086 548.458C282.342 509.001 305.729 421.612 266.321 353.271C226.913 284.929 139.634 261.513 71.3779 300.97C3.12165 340.427 -20.2647 427.816 19.1431 496.158C58.5509 564.5 145.83 587.915 214.086 548.458Z" fill="url(#paint1_linear_744_203)"/>
<defs>
<linearGradient id="paint0_linear_744_203" x1="966.5" y1="-136.5" x2="295.5" y2="722.5" gradientUnits="userSpaceOnUse">
<stop stop-color="#3AD398"/>
<stop offset="0.254416" stop-color="#00022C"/>
<stop offset="0.432292" stop-color="#016DEC"/>
<stop offset="0.614583" stop-color="#A6EDE8"/>
<stop offset="0.721753" stop-color="#F1FFFE"/>
<stop offset="0.84375" stop-color="#FFA7C0"/>
<stop offset="0.90625" stop-color="#FE9798"/>
<stop offset="1" stop-color="#FFE6B9"/>
</linearGradient>
<linearGradient id="paint1_linear_744_203" x1="321" y1="236.81" x2="538.733" y2="813.077" gradientUnits="userSpaceOnUse">
<stop stop-color="#C6FFE9" stop-opacity="0"/>
<stop offset="0.0989583" stop-color="#FFC6C6" stop-opacity="0"/>
<stop offset="0.304229" stop-color="#C6FFE9" stop-opacity="0"/>
<stop offset="0.481588" stop-color="#E7FEFF" stop-opacity="0.21"/>
<stop offset="0.755208" stop-color="#FBFBFF" stop-opacity="0"/>
<stop offset="1" stop-color="#FFF3C7" stop-opacity="0"/>
</linearGradient>
</defs>
</svg>
