<svg width="30" height="29" viewBox="0 0 30 29" fill="none" xmlns="http://www.w3.org/2000/svg">
<path d="M24.088 16.112C22.808 16.112 21.528 15.8773 20.248 15.408C19.6507 16.4747 19.224 17.5413 18.968 18.608C20.8453 19.1627 22.36 20.0373 23.512 21.232C24.7067 22.4267 25.304 23.664 25.304 24.944C25.304 25.9253 24.9413 26.736 24.216 27.376C23.5333 28.016 22.68 28.336 21.656 28.336C20.12 28.336 18.8827 27.5893 17.944 26.096C17.0053 24.6027 16.536 22.9173 16.536 21.04C16.536 20.6133 16.5573 20.2933 16.6 20.08C15.9173 19.9947 15.4267 19.952 15.128 19.952C14.5733 19.952 14.1467 19.9733 13.848 20.016V20.208C13.848 22.384 13.3147 24.3253 12.248 26.032C11.1813 27.696 9.77333 28.528 8.024 28.528C7.08533 28.528 6.25333 28.2293 5.528 27.632C4.84533 27.0347 4.504 26.224 4.504 25.2C4.504 23.7493 5.16533 22.4053 6.488 21.168C7.85333 19.888 9.56 18.992 11.608 18.48C11.4373 17.4987 11.096 16.4107 10.584 15.216C9.26133 15.6853 7.93867 15.92 6.616 15.92C4.99467 15.92 3.65067 15.5787 2.584 14.896C1.51733 14.1707 0.984 13.168 0.984 11.888C0.984 10.9067 1.28267 10.0747 1.88 9.392C2.52 8.66666 3.45867 8.304 4.696 8.304C6.01867 8.304 7.27733 8.70933 8.472 9.52C9.66667 10.3307 10.6907 11.4187 11.544 12.784C12.4827 12.2293 13.3147 11.632 14.04 10.992C13.1867 10.0107 12.5253 8.96533 12.056 7.856C11.5867 6.74666 11.352 5.65866 11.352 4.592C11.352 3.35466 11.672 2.39466 12.312 1.712C12.9947 1.02933 13.976 0.688 15.256 0.688C16.5787 0.688 17.56 1.05067 18.2 1.776C18.84 2.50133 19.16 3.48266 19.16 4.72C19.16 6.85333 18.3493 8.90133 16.728 10.864C17.496 11.632 18.3493 12.3147 19.288 12.912C20.2267 11.5467 21.272 10.4587 22.424 9.648C23.576 8.83733 24.728 8.432 25.88 8.432C26.9467 8.432 27.7787 8.77333 28.376 9.456C29.016 10.096 29.336 10.9493 29.336 12.016C29.336 13.3387 28.8453 14.3627 27.864 15.088C26.9253 15.7707 25.6667 16.112 24.088 16.112ZM15.448 2.544C14.296 2.544 13.72 3.20533 13.72 4.528C13.72 6.23466 14.3173 7.87733 15.512 9.456C16.7067 7.83466 17.304 6.27733 17.304 4.784C17.304 4.10133 17.1333 3.568 16.792 3.184C16.4933 2.75733 16.0453 2.544 15.448 2.544ZM6.68 14.128C7.66133 14.128 8.664 13.9573 9.688 13.616C9.00533 12.592 8.25867 11.7813 7.448 11.184C6.68 10.544 5.89067 10.224 5.08 10.224C4.568 10.224 4.14133 10.3947 3.8 10.736C3.50133 11.0347 3.352 11.44 3.352 11.952C3.352 12.6773 3.65067 13.232 4.248 13.616C4.888 13.9573 5.69867 14.128 6.68 14.128ZM25.752 10.416C24.984 10.416 24.1947 10.736 23.384 11.376C22.616 11.9733 21.8907 12.784 21.208 13.808C22.232 14.1493 23.2133 14.32 24.152 14.32C25.1333 14.32 25.9227 14.1493 26.52 13.808C27.1173 13.424 27.416 12.8693 27.416 12.144C27.416 11.632 27.2667 11.2267 26.968 10.928C26.6693 10.5867 26.264 10.416 25.752 10.416ZM16.92 18.16C17.304 16.752 17.7733 15.536 18.328 14.512C17.304 13.9573 16.3013 13.232 15.32 12.336C14.3387 13.1467 13.3787 13.8293 12.44 14.384C12.952 15.4507 13.3573 16.688 13.656 18.096C13.9547 18.0533 14.424 18.032 15.064 18.032C15.5333 18.032 16.152 18.0747 16.92 18.16ZM8.344 26.672C9.28267 26.672 10.072 26.032 10.712 24.752C11.352 23.472 11.6933 22.0427 11.736 20.464C10.2853 20.8907 9.09067 21.552 8.152 22.448C7.256 23.3013 6.808 24.176 6.808 25.072C6.808 25.5413 6.95733 25.9253 7.256 26.224C7.55467 26.5227 7.91733 26.672 8.344 26.672ZM23.384 24.88C23.384 24.0693 22.936 23.2587 22.04 22.448C21.144 21.5947 20.0133 20.9547 18.648 20.528V21.04C18.648 22.32 18.904 23.536 19.416 24.688C19.928 25.84 20.6747 26.416 21.656 26.416C22.1253 26.416 22.5307 26.2667 22.872 25.968C23.2133 25.6693 23.384 25.3067 23.384 24.88Z" fill="white"/>
</svg>
